<?xml version="1.0" encoding="UTF-8"?>
<svg width="152.24px" height="126.36px" enable-background="new 0 0 152.24 126.36" version="1.1" viewBox="0 0 152.24 126.36" xml:space="preserve" xmlns="http://www.w3.org/2000/svg">

	<path d="m43.348 121.36v-17.18h2.273v7.055h8.93v-7.055h2.273v17.18h-2.273v-8.098h-8.93v8.098h-2.273z"/>


	<path d="m55.334 75.654 2.273 0.574c-0.477 1.867-1.334 3.291-2.572 4.271s-2.752 1.471-4.541 1.471c-1.852 0-3.357-0.377-4.518-1.131s-2.043-1.846-2.648-3.275-0.908-2.964-0.908-4.605c0-1.789 0.342-3.35 1.025-4.682s1.656-2.344 2.918-3.035 2.65-1.037 4.166-1.037c1.719 0 3.164 0.438 4.336 1.313s1.988 2.105 2.449 3.691l-2.238 0.527c-0.398-1.25-0.977-2.16-1.734-2.73s-1.711-0.855-2.859-0.855c-1.32 0-2.424 0.316-3.311 0.949s-1.51 1.482-1.869 2.549-0.539 2.166-0.539 3.299c0 1.461 0.213 2.736 0.639 3.826s1.088 1.904 1.986 2.443 1.871 0.809 2.918 0.809c1.273 0 2.352-0.367 3.234-1.102s1.48-1.824 1.793-3.27z"/>

<rect x="49.176" y="84.275" width="1.7" height="17.649"/>
<polygon points="74.576 57.075 75.426 58.575 59.426 67.775 58.576 66.325"/>

	<path d="m23.498 47.323v-17.18h2.273v7.055h8.93v-7.055h2.273v17.18h-2.273v-8.098h-8.93v8.098h-2.273z"/>

<polygon points="33.826 51.825 40.426 47.975 41.026 49.625 34.926 53.125"/>
<polygon points="36.876 55.375 41.976 52.425 42.576 54.075 38.026 56.675"/>
<polygon points="39.976 58.925 43.526 56.875 44.126 58.525 41.076 60.226"/>
<polygon points="43.026 62.525 45.076 61.325 45.676 62.976 44.176 63.825"/>

	<path d="M4.998,71.425v-17.18h2.273V61.3h8.93v-7.055h2.273v17.18h-2.273v-8.098h-8.93v8.098H4.998z"/>

<polygon points="21.276 68.525 23.276 61.125 40.676 68.875 40.226 70.525"/>

	<path d="M77.699,22.178V4.998h2.273v7.055h8.93V4.998h2.273v17.18h-2.273V14.08h-8.93v8.098H77.699z"/>

<rect x="83.525" y="24.425" width="1.701" height="17.65"/>

	<path d="m97.545 96.222v-17.18h2.273v7.055h8.93v-7.055h2.273v17.18h-2.273v-8.098h-8.93v8.098h-2.273z"/>

<polygon points="101.38 74.175 94.775 78.025 89.676 63.275 91.176 62.425"/>
<polygon points="113.48 56.226 111.48 63.625 109.93 62.925 111.78 56.075"/>
<polygon points="107.88 55.675 106.38 61.325 104.78 60.625 106.18 55.476"/>
<polygon points="102.28 55.075 101.23 59.025 99.626 58.325 100.58 54.925"/>
<polygon points="96.676 54.525 96.076 56.726 94.525 55.976 94.926 54.375"/>

	<path d="m89.686 55.847 2.273 0.574c-0.477 1.867-1.334 3.291-2.572 4.271s-2.752 1.471-4.541 1.471c-1.852 0-3.357-0.377-4.518-1.131s-2.043-1.846-2.648-3.275-0.908-2.965-0.908-4.605c0-1.789 0.342-3.35 1.025-4.682s1.656-2.344 2.918-3.035 2.65-1.037 4.166-1.037c1.719 0 3.164 0.438 4.336 1.313s1.988 2.105 2.449 3.691l-2.238 0.527c-0.398-1.25-0.977-2.16-1.734-2.73s-1.711-0.855-2.859-0.855c-1.32 0-2.424 0.316-3.311 0.949s-1.51 1.482-1.869 2.549-0.539 2.166-0.539 3.299c0 1.461 0.213 2.736 0.639 3.826s1.088 1.904 1.986 2.443 1.871 0.809 2.918 0.809c1.273 0 2.352-0.367 3.234-1.102s1.48-1.825 1.793-3.27z"/>


	<path d="m114.34 63.753c0-2.852 0.766-5.084 2.297-6.697s3.508-2.42 5.93-2.42c1.586 0 3.016 0.379 4.289 1.137s2.244 1.814 2.912 3.17 1.002 2.893 1.002 4.611c0 1.742-0.352 3.301-1.055 4.676s-1.699 2.416-2.988 3.123-2.68 1.061-4.172 1.061c-1.617 0-3.063-0.391-4.336-1.172s-2.238-1.848-2.895-3.199-0.984-2.782-0.984-4.29zm2.344 0.035c0 2.07 0.557 3.701 1.67 4.893s2.51 1.787 4.189 1.787c1.711 0 3.119-0.602 4.225-1.805s1.658-2.91 1.658-5.121c0-1.398-0.236-2.619-0.709-3.662s-1.164-1.852-2.074-2.426-1.932-0.861-3.064-0.861c-1.609 0-2.994 0.553-4.154 1.658s-1.741 2.951-1.741 5.537z"/>
	<path d="m133.77 72.12v-17.18h2.273v7.055h8.93v-7.055h2.273v17.18h-2.273v-8.098h-8.93v8.098h-2.273z"/>

</svg>
